<svg id="SvgjsSvg1378" width="1029.296875" height="814.671875" xmlns="http://www.w3.org/2000/svg" version="1.1" xmlns:xlink="http://www.w3.org/1999/xlink" xmlns:svgjs="http://svgjs.com/svgjs"><defs id="SvgjsDefs1379"><marker id="SvgjsMarker1492" markerWidth="16" markerHeight="12" refX="16" refY="6" viewBox="0 0 16 12" orient="auto" markerUnits="userSpaceOnUse" stroke-dasharray="0,0"><path id="SvgjsPath1493" d="M0,2 L14,6 L0,11 L0,2" fill="#323232" stroke="#323232" stroke-width="2"></path></marker></defs><g id="SvgjsG1380" transform="translate(319.9648735048231,676.6788194444464)"><path id="SvgjsPath1381" d="M 0 4Q 0 0 4 0L 332.6666666666675 0Q 336.6666666666675 0 336.6666666666675 4L 336.6666666666675 108.77777777777806Q 336.6666666666675 112.77777777777806 332.6666666666675 112.77777777777806L 4 112.77777777777806Q 0 112.77777777777806 0 108.77777777777806Z" stroke="rgba(50,50,50,1)" stroke-width="2" fill-opacity="1" fill="#ffff66"></path><g id="SvgjsG1382"><text id="SvgjsText1383" font-family="微软雅黑" text-anchor="middle" font-size="13px" width="317px" fill="#323232" font-weight="400" align="middle" lineHeight="125%" anchor="middle" family="微软雅黑" size="13px" weight="400" font-style="" opacity="1" y="46.76388888888903" transform="rotate(0)"><tspan id="SvgjsTspan1384" dy="16" x="168.5"><tspan id="SvgjsTspan1385" style="text-decoration:;">应用服务接入e2cdatabus，接收配置更新数据</tspan></tspan></text></g></g><g id="SvgjsG1386" transform="translate(25.006944444444684,25.012152777777942)"><path id="SvgjsPath1387" d="M 0 0L 966.6666666666694 0L 966.6666666666694 543.5617283950637L 0 543.5617283950637Z" stroke="rgba(50,50,50,1)" stroke-width="2" fill-opacity="1" fill="#ffffff"></path><g id="SvgjsG1388"><text id="SvgjsText1389" font-family="微软雅黑" text-anchor="middle" font-size="13px" width="947px" fill="#323232" font-weight="400" align="middle" lineHeight="125%" anchor="middle" family="微软雅黑" size="13px" weight="400" font-style="" opacity="1" y="262.15586419753186" transform="rotate(0)"></text></g></g><g id="SvgjsG1390" transform="translate(429.79779411764713,262.734375)"><path id="SvgjsPath1391" d="M 0 4Q 0 0 4 0L 541.0588235294119 0Q 545.0588235294119 0 545.0588235294119 4L 545.0588235294119 58.5Q 545.0588235294119 62.5 541.0588235294119 62.5L 4 62.5Q 0 62.5 0 58.5Z" stroke="rgba(50,50,50,1)" stroke-width="2" fill-opacity="1" fill="#66b2ff"></path><g id="SvgjsG1392"><text id="SvgjsText1393" font-family="微软雅黑" text-anchor="middle" font-size="13px" width="526px" fill="#323232" font-weight="400" align="middle" lineHeight="125%" anchor="middle" family="微软雅黑" size="13px" weight="400" font-style="" opacity="1" y="5.625" transform="rotate(0)"><tspan id="SvgjsTspan1394" dy="16" x="273"><tspan id="SvgjsTspan1395" style="text-decoration:;"> </tspan></tspan><tspan id="SvgjsTspan1396" dy="16" x="273"><tspan id="SvgjsTspan1397" style="text-decoration:;"> </tspan></tspan><tspan id="SvgjsTspan1398" dy="16" x="273"><tspan id="SvgjsTspan1399" style="text-decoration:;">HTTP服务集群，登录、项目管理、Excel管理等</tspan></tspan></text></g></g><g id="SvgjsG1400" transform="translate(479.7977941176465,268.234375)"><path id="SvgjsPath1401" d="M 0 4Q 0 0 4 0L 91 0Q 95 0 95 4L 95 23Q 95 27 91 27L 4 27Q 0 27 0 23Z" stroke="rgba(50,50,50,1)" stroke-width="2" fill-opacity="1" fill="#ffffff"></path><g id="SvgjsG1402"><text id="SvgjsText1403" font-family="微软雅黑" text-anchor="middle" font-size="13px" width="75px" fill="#323232" font-weight="400" align="middle" lineHeight="125%" anchor="middle" family="微软雅黑" size="13px" weight="400" font-style="" opacity="1" y="3.875" transform="rotate(0)"><tspan id="SvgjsTspan1404" dy="16" x="47.5"><tspan id="SvgjsTspan1405" style="text-decoration:;">web服务</tspan></tspan></text></g></g><g id="SvgjsG1406" transform="translate(597.7977941176465,268.234375)"><path id="SvgjsPath1407" d="M 0 4Q 0 0 4 0L 91 0Q 95 0 95 4L 95 23Q 95 27 91 27L 4 27Q 0 27 0 23Z" stroke="rgba(50,50,50,1)" stroke-width="2" fill-opacity="1" fill="#ffffff"></path><g id="SvgjsG1408"><text id="SvgjsText1409" font-family="微软雅黑" text-anchor="middle" font-size="13px" width="75px" fill="#323232" font-weight="400" align="middle" lineHeight="125%" anchor="middle" family="微软雅黑" size="13px" weight="400" font-style="" opacity="1" y="3.875" transform="rotate(0)"><tspan id="SvgjsTspan1410" dy="16" x="47.5"><tspan id="SvgjsTspan1411" style="text-decoration:;">web服务</tspan></tspan></text></g></g><g id="SvgjsG1412" transform="translate(712.2977941176465,268.234375)"><path id="SvgjsPath1413" d="M 0 4Q 0 0 4 0L 91 0Q 95 0 95 4L 95 23Q 95 27 91 27L 4 27Q 0 27 0 23Z" stroke="rgba(50,50,50,1)" stroke-width="2" fill-opacity="1" fill="#ffffff"></path><g id="SvgjsG1414"><text id="SvgjsText1415" font-family="微软雅黑" text-anchor="middle" font-size="13px" width="75px" fill="#323232" font-weight="400" align="middle" lineHeight="125%" anchor="middle" family="微软雅黑" size="13px" weight="400" font-style="" opacity="1" y="3.875" transform="rotate(0)"><tspan id="SvgjsTspan1416" dy="16" x="47.5"><tspan id="SvgjsTspan1417" style="text-decoration:;">web服务</tspan></tspan></text></g></g><g id="SvgjsG1418" transform="translate(830.7977941176465,268.234375)"><path id="SvgjsPath1419" d="M 0 4Q 0 0 4 0L 91 0Q 95 0 95 4L 95 23Q 95 27 91 27L 4 27Q 0 27 0 23Z" stroke="rgba(50,50,50,1)" stroke-width="2" fill-opacity="1" fill="#ffffff"></path><g id="SvgjsG1420"><text id="SvgjsText1421" font-family="微软雅黑" text-anchor="middle" font-size="13px" width="75px" fill="#323232" font-weight="400" align="middle" lineHeight="125%" anchor="middle" family="微软雅黑" size="13px" weight="400" font-style="" opacity="1" y="3.875" transform="rotate(0)"><tspan id="SvgjsTspan1422" dy="16" x="47.5"><tspan id="SvgjsTspan1423" style="text-decoration:;">web服务</tspan></tspan></text></g></g><g id="SvgjsG1424" transform="translate(48.03308823529416,262.734375)"><path id="SvgjsPath1425" d="M 0 4Q 0 0 4 0L 362 0Q 366 0 366 4L 366 58.5Q 366 62.5 362 62.5L 4 62.5Q 0 62.5 0 58.5Z" stroke="rgba(50,50,50,1)" stroke-width="2" fill-opacity="1" fill="#66b2ff"></path><g id="SvgjsG1426"><text id="SvgjsText1427" font-family="微软雅黑" text-anchor="middle" font-size="13px" width="346px" fill="#323232" font-weight="400" align="middle" lineHeight="125%" anchor="middle" family="微软雅黑" size="13px" weight="400" font-style="" opacity="1" y="5.625" transform="rotate(0)"><tspan id="SvgjsTspan1428" dy="16" x="183"><tspan id="SvgjsTspan1429" style="text-decoration:;"> </tspan></tspan><tspan id="SvgjsTspan1430" dy="16" x="183"><tspan id="SvgjsTspan1431" style="text-decoration:;"> </tspan></tspan><tspan id="SvgjsTspan1432" dy="16" x="183"><tspan id="SvgjsTspan1433" style="text-decoration:;">WebSocket在线协作服务</tspan></tspan></text></g></g><g id="SvgjsG1434" transform="translate(133.0330882352943,268.921875)"><path id="SvgjsPath1435" d="M 0 4Q 0 0 4 0L 87 0Q 91 0 91 4L 91 21.625Q 91 25.625 87 25.625L 4 25.625Q 0 25.625 0 21.625Z" stroke="rgba(50,50,50,1)" stroke-width="2" fill-opacity="1" fill="#ffffff"></path><g id="SvgjsG1436"><text id="SvgjsText1437" font-family="微软雅黑" text-anchor="middle" font-size="13px" width="71px" fill="#323232" font-weight="400" align="middle" lineHeight="125%" anchor="middle" family="微软雅黑" size="13px" weight="400" font-style="" opacity="1" y="3.1875" transform="rotate(0)"><tspan id="SvgjsTspan1438" dy="16" x="45.5"><tspan id="SvgjsTspan1439" style="text-decoration:;">在线同步</tspan></tspan></text></g></g><g id="SvgjsG1440" transform="translate(241.03308823529437,268.234375)"><path id="SvgjsPath1441" d="M 0 4Q 0 0 4 0L 90 0Q 94 0 94 4L 94 23Q 94 27 90 27L 4 27Q 0 27 0 23Z" stroke="rgba(50,50,50,1)" stroke-width="2" fill-opacity="1" fill="#ffffff"></path><g id="SvgjsG1442"><text id="SvgjsText1443" font-family="微软雅黑" text-anchor="middle" font-size="13px" width="74px" fill="#323232" font-weight="400" align="middle" lineHeight="125%" anchor="middle" family="微软雅黑" size="13px" weight="400" font-style="" opacity="1" y="3.875" transform="rotate(0)"><tspan id="SvgjsTspan1444" dy="16" x="47"><tspan id="SvgjsTspan1445" style="text-decoration:;">实时保存</tspan></tspan></text></g></g><g id="SvgjsG1446" transform="translate(723.5521193771625,154.82261029411757)"><path id="SvgjsPath1447" d="M 19.8 0L 40.2 0L 40.2 60L 60 60L 30 90L 0 60L 19.8 60L 19.8 0Z" stroke="rgba(50,50,50,1)" stroke-width="2" fill-opacity="1" fill="#ffffff"></path><g id="SvgjsG1448"><text id="SvgjsText1449" font-family="微软雅黑" text-anchor="middle" font-size="13px" width="84px" fill="#323232" font-weight="400" align="middle" lineHeight="125%" anchor="middle" family="微软雅黑" size="13px" weight="400" font-style="" opacity="1" y="30.875" transform="rotate(0)"></text></g></g><g id="SvgjsG1450" transform="translate(48.03308823529409,68.234375)"><path id="SvgjsPath1451" d="M 0 4Q 0 0 4 0L 922.8235294117649 0Q 926.8235294117649 0 926.8235294117649 4L 926.8235294117649 72Q 926.8235294117649 76 922.8235294117649 76L 4 76Q 0 76 0 72Z" stroke="rgba(50,50,50,1)" stroke-width="2" fill-opacity="1" fill="#ffffcc"></path><g id="SvgjsG1452"><text id="SvgjsText1453" font-family="微软雅黑" text-anchor="middle" font-size="13px" width="907px" fill="#323232" font-weight="400" align="middle" lineHeight="125%" anchor="middle" family="微软雅黑" size="13px" weight="400" font-style="" opacity="1" y="28.375" transform="rotate(0)"><tspan id="SvgjsTspan1454" dy="16" x="463.5"><tspan id="SvgjsTspan1455" style="text-decoration:;">浏览器</tspan></tspan></text></g></g><g id="SvgjsG1456" transform="translate(281.34239234909705,71.234375)"><path id="SvgjsPath1457" d="M 0 35C 0 -11.666666666666666 70 -11.666666666666666 70 35C 70 81.66666666666667 0 81.66666666666667 0 35Z" stroke="rgba(50,50,50,1)" stroke-width="2" fill-opacity="1" fill="#ffffff"></path><g id="SvgjsG1458"><text id="SvgjsText1459" font-family="微软雅黑" text-anchor="middle" font-size="13px" width="50px" fill="#323232" font-weight="400" align="middle" lineHeight="125%" anchor="middle" family="微软雅黑" size="13px" weight="400" font-style="" opacity="1" y="25.375" transform="rotate(0)"><tspan id="SvgjsTspan1460" dy="16" x="35"><tspan id="SvgjsTspan1461" style="text-decoration:;">用户1</tspan></tspan></text></g></g><g id="SvgjsG1462" transform="translate(379.84239234909705,71.234375)"><path id="SvgjsPath1463" d="M 0 35C 0 -11.666666666666666 70 -11.666666666666666 70 35C 70 81.66666666666667 0 81.66666666666667 0 35Z" stroke="rgba(50,50,50,1)" stroke-width="2" fill-opacity="1" fill="#ffffff"></path><g id="SvgjsG1464"><text id="SvgjsText1465" font-family="微软雅黑" text-anchor="middle" font-size="13px" width="50px" fill="#323232" font-weight="400" align="middle" lineHeight="125%" anchor="middle" family="微软雅黑" size="13px" weight="400" font-style="" opacity="1" y="25.375" transform="rotate(0)"><tspan id="SvgjsTspan1466" dy="16" x="35"><tspan id="SvgjsTspan1467" style="text-decoration:;">用户2</tspan></tspan></text></g></g><g id="SvgjsG1468" transform="translate(679.8916041906957,71.234375)"><path id="SvgjsPath1469" d="M 0 35C 0 -11.666666666666666 70 -11.666666666666666 70 35C 70 81.66666666666667 0 81.66666666666667 0 35Z" stroke="rgba(50,50,50,1)" stroke-width="2" fill-opacity="1" fill="#ffffff"></path><g id="SvgjsG1470"><text id="SvgjsText1471" font-family="微软雅黑" text-anchor="middle" font-size="13px" width="50px" fill="#323232" font-weight="400" align="middle" lineHeight="125%" anchor="middle" family="微软雅黑" size="13px" weight="400" font-style="" opacity="1" y="25.375" transform="rotate(0)"><tspan id="SvgjsTspan1472" dy="16" x="35"><tspan id="SvgjsTspan1473" style="text-decoration:;">用户...</tspan></tspan></text></g></g><g id="SvgjsG1474" transform="translate(578.3916041906957,71.234375)"><path id="SvgjsPath1475" d="M 0 35C 0 -11.666666666666666 70 -11.666666666666666 70 35C 70 81.66666666666667 0 81.66666666666667 0 35Z" stroke="rgba(50,50,50,1)" stroke-width="2" fill-opacity="1" fill="#ffffff"></path><g id="SvgjsG1476"><text id="SvgjsText1477" font-family="微软雅黑" text-anchor="middle" font-size="13px" width="50px" fill="#323232" font-weight="400" align="middle" lineHeight="125%" anchor="middle" family="微软雅黑" size="13px" weight="400" font-style="" opacity="1" y="25.375" transform="rotate(0)"><tspan id="SvgjsTspan1478" dy="16" x="35"><tspan id="SvgjsTspan1479" style="text-decoration:;">用户3</tspan></tspan></text></g></g><g id="SvgjsG1480" transform="translate(190.51934917565592,164.2343749999999)"><path id="SvgjsPath1481" d="M 19.8 0L 40.2 0L 40.2 60L 60 60L 30 90L 0 60L 19.8 60L 19.8 0Z" stroke="rgba(50,50,50,1)" stroke-width="2" fill-opacity="1" fill="#ffffff"></path><g id="SvgjsG1482"><text id="SvgjsText1483" font-family="微软雅黑" text-anchor="middle" font-size="13px" width="84px" fill="#323232" font-weight="400" align="middle" lineHeight="125%" anchor="middle" family="微软雅黑" size="13px" weight="400" font-style="" opacity="1" y="30.875" transform="rotate(0)"></text></g></g><g id="SvgjsG1484" transform="translate(48.033088235294144,397.7899305555569)"><path id="SvgjsPath1485" d="M 0 4Q 0 0 4 0L 922.823529411765 0Q 926.823529411765 0 926.823529411765 4L 926.823529411765 119.88888888888914Q 926.823529411765 123.88888888888914 922.823529411765 123.88888888888914L 4 123.88888888888914Q 0 123.88888888888914 0 119.88888888888914Z" stroke="rgba(50,50,50,1)" stroke-width="2" fill-opacity="1" fill="#ccccff"></path><g id="SvgjsG1486"><text id="SvgjsText1487" font-family="微软雅黑" text-anchor="middle" font-size="26px" width="907px" fill="#323232" font-weight="400" align="middle" lineHeight="125%" anchor="middle" family="微软雅黑" size="26px" weight="400" font-style="" opacity="1" y="40.69444444444457" transform="rotate(0)"><tspan id="SvgjsTspan1488" dy="32" x="463.5"><tspan id="SvgjsTspan1489" style="text-decoration:;">mongodb</tspan></tspan></text></g></g><g id="SvgjsG1490"><path id="SvgjsPath1491" d="M974.856617647059 293.984375L1004.856617647059 293.984375L1004.856617647059 646.6788194444464L488.2982068381567 646.6788194444464L488.2982068381567 676.6788194444464" stroke="#323232" stroke-width="2" fill="none" marker-end="url(#SvgjsMarker1492)"></path></g><g id="SvgjsG1494" transform="translate(190.51934917565592,325.234375)"><path id="SvgjsPath1495" d="M 16.66953388968069 0L 33.84420516995777 0L 33.84420516995777 43.74313047018077L 50.51373905963845 43.74313047018077L 25.256869529819227 69L 0 43.74313047018077L 16.66953388968069 43.74313047018077L 16.66953388968069 0Z" stroke="rgba(50,50,50,1)" stroke-width="2" fill-opacity="1" fill="#ffffff"></path><g id="SvgjsG1496"><text id="SvgjsText1497" font-family="微软雅黑" text-anchor="middle" font-size="13px" width="71px" fill="#323232" font-weight="400" align="middle" lineHeight="125%" anchor="middle" family="微软雅黑" size="13px" weight="400" font-style="" opacity="1" y="21.424999999999997" transform="rotate(0)"></text></g></g><g id="SvgjsG1498" transform="translate(733.038380317524,325.234375)"><path id="SvgjsPath1499" d="M 16.66953388968069 0L 33.84420516995777 0L 33.84420516995777 43.74313047018077L 50.51373905963845 43.74313047018077L 25.256869529819227 69L 0 43.74313047018077L 16.66953388968069 43.74313047018077L 16.66953388968069 0Z" stroke="rgba(50,50,50,1)" stroke-width="2" fill-opacity="1" fill="#ffffff"></path><g id="SvgjsG1500"><text id="SvgjsText1501" font-family="微软雅黑" text-anchor="middle" font-size="13px" width="71px" fill="#323232" font-weight="400" align="middle" lineHeight="125%" anchor="middle" family="微软雅黑" size="13px" weight="400" font-style="" opacity="1" y="21.424999999999997" transform="rotate(0)"></text></g></g><g id="SvgjsG1502" transform="translate(801.5553303731456,607.7606907894735)"><path id="SvgjsPath1503" d="M 0 0L 64 0L 80 16L 80 100L 0 100L 0 0Z" stroke="none" fill-opacity="1" fill="#ffffaa"></path><path id="SvgjsPath1504" d="M 64 0L 64 16L 80 16Z" stroke="none" fill-opacity="1" fill="#cdcdcd"></path><path id="SvgjsPath1505" d="M 0 0L 64 0L 80 16L 80 100L 0 100L 0 0Z" stroke="none" fill="none"></path><g id="SvgjsG1506"><text id="SvgjsText1507" font-family="微软雅黑" text-anchor="middle" font-size="13px" width="60px" fill="#323232" font-weight="400" align="middle" lineHeight="125%" anchor="middle" family="微软雅黑" size="13px" weight="400" font-style="" opacity="1" y="40.375" transform="rotate(0)"><tspan id="SvgjsTspan1508" dy="16" x="40"><tspan id="SvgjsTspan1509" style="text-decoration:;">RPC通信</tspan></tspan></text></g></g></svg>